<svg width="57" height="71" viewBox="0 0 57 71" fill="none" xmlns="http://www.w3.org/2000/svg">
	<path d="M31.2793 71L25.3929 58.8181L25.2355 58.881L25.4244 62.5954V71H21.4582V48.9655H24.6375L30.4294 61.6196L30.5868 61.5566L30.2405 57.6849V48.9655H34.2067V71H31.2793Z" fill="#006a9c"/>
	<path d="M46.6082 46.5173L45.9471 43.0232H40.9736L40.3126 46.5173H36.0316L40.2811 24.4828H46.797L50.8262 46.5173H46.6082ZM43.3974 28.5749L42.1698 35.9092L41.4773 39.6551H45.412L44.688 35.9092L43.4604 28.5749H43.3974Z" fill="#006a9c"/>
	<path d="M31.2793 46.5173L25.3929 34.3354L25.2355 34.3983L25.4244 38.1127V46.5173H21.4582V24.4828H24.6375L30.4294 37.1369L30.5868 37.0739L30.2405 33.2021V24.4828H34.2067V46.5173H31.2793Z" fill="#006a9c"/>
	<path d="M15.407 46.5173L14.746 43.0232H9.77246L9.11143 46.5173H4.83044L9.07995 24.4828H15.5959L19.625 46.5173H15.407ZM12.1963 28.5749L10.9686 35.9092L10.2761 39.6551H14.2108L13.4868 35.9092L12.2592 28.5749H12.1963Z" fill="#006a9c"/>
	<path d="M51.9108 22.0345L51.2498 18.5404H46.2763L45.6153 22.0345H41.3343L45.5838 0H52.0997L56.1289 22.0345H51.9108ZM48.7001 4.09212L47.4725 11.4265L46.78 15.1723H50.7147L49.9907 11.4265L48.7631 4.09212H48.7001Z" fill="#006a9c"/>
	<path d="M29.5275 22.0345V0H33.8399V18.3831H40.3873V22.0345H29.5275Z" fill="#006a9c"/>
	<path d="M22.7285 0C24.1975 1.19616 25.2887 2.80153 26.0022 4.81611C26.7157 6.83069 27.0725 8.90823 27.0725 11.0487C27.0725 13.1682 26.7262 15.1828 26.0337 17.0925C25.3412 19.0021 24.2395 20.6495 22.7285 22.0345H16.2441C14.7332 20.6495 13.6314 19.0021 12.9389 17.0925C12.2464 15.1828 11.9001 13.1682 11.9001 11.0487C11.9001 8.90823 12.2569 6.83069 12.9704 4.81611C13.6839 2.80153 14.7751 1.19616 16.2441 0H22.7285ZM18.3531 18.3831H20.6195C21.1441 17.7745 21.5848 16.7882 21.9416 15.4241C22.3193 14.0391 22.5082 12.5806 22.5082 11.0487C22.5082 9.5168 22.3298 8.07931 21.9731 6.73626C21.6163 5.37222 21.1756 4.38591 20.651 3.77734H18.3531C17.8285 4.38591 17.3773 5.37222 16.9996 6.73626C16.6428 8.07931 16.4644 9.5168 16.4644 11.0487C16.4644 12.5806 16.6428 14.0391 16.9996 15.4241C17.3773 16.7882 17.8285 17.7745 18.3531 18.3831Z" fill="#006a9c"/>
	<path d="M2.73857 0H10.2933V3.77734H4.24951L4.15507 3.96621L9.19153 13.1577C10.2198 15.0044 10.7339 16.4104 10.7339 17.3758C10.7339 19.4953 10.0309 21.0482 8.62493 22.0345H0.2833V18.3831H6.79921L6.89364 18.1942L1.22764 8.02685C0.409212 6.55788 0 5.36172 0 4.43837C0 2.25591 0.912857 0.776453 2.73857 0Z" fill="#006a9c"/>
</svg>