<svg width="457" height="577" viewBox="0 0 457 577" fill="none" xmlns="http://www.w3.org/2000/svg">
<path d="M254.327 576.611L206.522 477.678L205.244 478.189L206.778 508.355V576.611H174.567V397.663H200.387L247.424 500.43L248.703 499.919L245.891 468.475V397.663H278.101V576.611H254.327Z" fill="#5755FE" fill-opacity="0.07"/>
<path d="M378.817 377.78L373.449 349.404H333.058L327.689 377.78H292.922L327.434 198.831H380.351L413.073 377.78H378.817ZM352.742 232.065L342.772 291.629L337.148 322.05H369.103L363.223 291.629L353.253 232.065H352.742Z" fill="#5755FE" fill-opacity="0.07"/>
<path d="M254.327 377.78L206.522 278.847L205.244 279.358L206.778 309.524V377.78H174.567V198.831H200.387L247.424 301.599L248.703 301.088L245.891 269.644V198.831H278.101V377.78H254.327Z" fill="#5755FE" fill-opacity="0.07"/>
<path d="M125.424 377.78L120.055 349.404H79.6641L74.2956 377.78H39.5285L74.04 198.831H126.958L159.679 377.78H125.424ZM99.3484 232.065L89.3784 291.629L83.7543 322.05H115.709L109.83 291.629L99.8597 232.065H99.3484Z" fill="#5755FE" fill-opacity="0.07"/>
<path d="M421.882 178.948L416.513 150.572H376.122L370.754 178.948H335.987L370.498 0H423.416L456.137 178.948H421.882ZM395.806 33.2332L385.836 92.7975L380.212 123.219H412.167L406.288 92.7975L396.318 33.2332H395.806Z" fill="#5755FE" fill-opacity="0.07"/>
<path d="M240.1 178.948V0H275.122V149.294H328.296V178.948H240.1Z" fill="#5755FE" fill-opacity="0.07"/>
<path d="M184.884 0C196.814 9.71434 205.676 22.752 211.47 39.113C217.265 55.474 220.162 72.3462 220.162 89.7298C220.162 106.943 217.35 123.304 211.726 138.813C206.102 154.322 197.154 167.7 184.884 178.948H132.222C119.951 167.7 111.004 154.322 105.38 138.813C99.7555 123.304 96.9435 106.943 96.9435 89.7298C96.9435 72.3462 99.8407 55.474 105.635 39.113C111.43 22.752 120.292 9.71434 132.222 0H184.884ZM149.35 149.294H167.756C172.016 144.352 175.595 136.342 178.493 125.264C181.56 114.016 183.094 102.171 183.094 89.7298C183.094 77.2886 181.646 65.6144 178.748 54.707C175.851 43.6293 172.272 35.6192 168.011 30.6768H149.35C145.089 35.6192 141.425 43.6293 138.357 54.707C135.46 65.6144 134.011 77.2886 134.011 89.7298C134.011 102.171 135.46 114.016 138.357 125.264C141.425 136.342 145.089 144.352 149.35 149.294Z" fill="#5755FE" fill-opacity="0.07"/>
<path d="M22.5397 0H83.8934V30.6768H34.8105L34.0435 32.2107L74.946 106.858C83.2969 121.855 87.4724 133.274 87.4724 141.113C87.4724 158.327 81.7631 170.938 70.3445 178.948H2.59977V149.294H55.5173L56.2842 147.76L10.269 65.1883C3.62234 53.2584 0.299011 43.5441 0.299011 36.0453C0.299011 18.3209 7.71258 6.3058 22.5397 0Z" fill="#5755FE" fill-opacity="0.07"/>
</svg>
